<svg width="102" height="102" viewBox="0 0 102 102" fill="none" xmlns="http://www.w3.org/2000/svg">
<g filter="url(#filter0_d_4296_4383)">
<path d="M93.5949 46.5658L70.0408 37.5818L61.2454 7.87797C61.0792 7.32004 60.7437 6.83173 60.2883 6.48483C59.8328 6.13793 59.2814 5.95072 58.715 5.95072C58.1486 5.95072 57.5972 6.13793 57.1417 6.48483C56.6863 6.83173 56.3508 7.32004 56.1846 7.87797L47.3919 37.5818L23.8351 46.5658C23.3286 46.7595 22.8917 47.1084 22.5832 47.5654C22.2747 48.0225 22.1094 48.5659 22.1094 49.1227C22.1094 49.6795 22.2747 50.2229 22.5832 50.6799C22.8917 51.137 23.3286 51.4859 23.8351 51.6796L47.3813 60.6609L56.1767 91.2702C56.3385 91.8345 56.6732 92.3298 57.1307 92.682C57.5881 93.0343 58.1439 93.2246 58.715 93.2246C59.2861 93.2246 59.8419 93.0343 60.2993 92.682C60.7568 92.3298 61.0915 91.8345 61.2533 91.2702L70.0514 60.6609L93.5975 51.6796C94.1062 51.4879 94.5455 51.1398 94.8558 50.6822C95.166 50.2247 95.3323 49.6799 95.332 49.1217C95.3317 48.5636 95.1649 48.019 94.8542 47.5618C94.5434 47.1046 94.1038 46.7569 93.5949 46.5658Z" fill="#FF8FF0"/>
</g>
<g filter="url(#filter1_d_4296_4383)">
<path d="M40.6551 76.568L34.533 74.2334L32.1509 65.233C31.9985 64.6553 31.6659 64.1452 31.2043 63.7816C30.7427 63.4179 30.1777 63.2209 29.5967 63.2209C29.0157 63.2209 28.4508 63.4179 27.9892 63.7816C27.5275 64.1452 27.1949 64.6553 27.0425 65.233L24.6604 74.2334L18.5383 76.568C18.0317 76.7617 17.5949 77.1106 17.2864 77.5677C16.9779 78.0247 16.8125 78.5682 16.8125 79.1249C16.8125 79.6817 16.9779 80.2251 17.2864 80.6822C17.5949 81.1392 18.0317 81.4881 18.5383 81.6818L24.6286 84.0083L27.0293 93.8868C27.1727 94.4766 27.5033 95 27.9684 95.374C28.4336 95.748 29.0067 95.9512 29.5967 95.9512C30.1867 95.9512 30.7598 95.748 31.225 95.374C31.6901 95 32.0207 94.4766 32.1641 93.8868L34.5648 84.0083L40.6551 81.6818C41.1617 81.4881 41.5985 81.1392 41.907 80.6822C42.2155 80.2251 42.3809 79.6817 42.3809 79.1249C42.3809 78.5682 42.2155 78.0247 41.907 77.5677C41.5985 77.1106 41.1617 76.7617 40.6551 76.568Z" fill="#B760AB"/>
</g>
<g filter="url(#filter2_d_4296_4383)">
<path d="M29.1782 17.4842L22.9185 15.0978L20.6025 8.64753C20.415 8.12466 20.0765 7.67355 19.6326 7.35495C19.1887 7.03635 18.6608 6.86555 18.1198 6.86555C17.5788 6.86555 17.0509 7.03635 16.607 7.35495C16.1631 7.67355 15.8246 8.12466 15.6371 8.64753L13.3185 15.0978L7.06137 17.4842C6.55395 17.6774 6.11617 18.0262 5.80698 18.4836C5.49779 18.941 5.33203 19.4851 5.33203 20.0425C5.33203 20.5999 5.49779 21.144 5.80698 21.6014C6.11617 22.0588 6.55395 22.4076 7.06137 22.6008L13.3185 24.9872L15.6371 31.4375C15.8235 31.9615 16.1615 32.4139 16.6055 32.7336C17.0496 33.0532 17.5782 33.2246 18.1198 33.2246C18.6615 33.2246 19.19 33.0532 19.6341 32.7336C20.0781 32.4139 20.4162 31.9615 20.6025 31.4375L22.9185 24.9872L29.1782 22.6008C29.6857 22.4076 30.1234 22.0588 30.4326 21.6014C30.7418 21.144 30.9076 20.5999 30.9076 20.0425C30.9076 19.4851 30.7418 18.941 30.4326 18.4836C30.1234 18.0262 29.6857 17.6774 29.1782 17.4842Z" fill="#FFA8F3"/>
</g>
<defs>
<filter id="filter0_d_4296_4383" x="-1.62849" y="-11.4566" width="120.698" height="134.749" filterUnits="userSpaceOnUse" color-interpolation-filters="sRGB">
<feFlood flood-opacity="0" result="BackgroundImageFix"/>
<feColorMatrix in="SourceAlpha" type="matrix" values="0 0 0 0 0 0 0 0 0 0 0 0 0 0 0 0 0 0 127 0" result="hardAlpha"/>
<feOffset dy="6.3301"/>
<feGaussianBlur stdDeviation="11.8689"/>
<feComposite in2="hardAlpha" operator="out"/>
<feColorMatrix type="matrix" values="0 0 0 0 0 0 0 0 0 0 0 0 0 0 0 0 0 0 0.1 0"/>
<feBlend mode="normal" in2="BackgroundImageFix" result="effect1_dropShadow_4296_4383"/>
<feBlend mode="normal" in="SourceGraphic" in2="effect1_dropShadow_4296_4383" result="shape"/>
</filter>
<filter id="filter1_d_4296_4383" x="-6.92537" y="45.8129" width="73.046" height="80.2062" filterUnits="userSpaceOnUse" color-interpolation-filters="sRGB">
<feFlood flood-opacity="0" result="BackgroundImageFix"/>
<feColorMatrix in="SourceAlpha" type="matrix" values="0 0 0 0 0 0 0 0 0 0 0 0 0 0 0 0 0 0 127 0" result="hardAlpha"/>
<feOffset dy="6.3301"/>
<feGaussianBlur stdDeviation="11.8689"/>
<feComposite in2="hardAlpha" operator="out"/>
<feColorMatrix type="matrix" values="0 0 0 0 0 0 0 0 0 0 0 0 0 0 0 0 0 0 0.1 0"/>
<feBlend mode="normal" in2="BackgroundImageFix" result="effect1_dropShadow_4296_4383"/>
<feBlend mode="normal" in="SourceGraphic" in2="effect1_dropShadow_4296_4383" result="shape"/>
</filter>
<filter id="filter2_d_4296_4383" x="-18.4058" y="-10.5425" width="73.0499" height="73.8351" filterUnits="userSpaceOnUse" color-interpolation-filters="sRGB">
<feFlood flood-opacity="0" result="BackgroundImageFix"/>
<feColorMatrix in="SourceAlpha" type="matrix" values="0 0 0 0 0 0 0 0 0 0 0 0 0 0 0 0 0 0 127 0" result="hardAlpha"/>
<feOffset dy="6.3301"/>
<feGaussianBlur stdDeviation="11.8689"/>
<feComposite in2="hardAlpha" operator="out"/>
<feColorMatrix type="matrix" values="0 0 0 0 0 0 0 0 0 0 0 0 0 0 0 0 0 0 0.1 0"/>
<feBlend mode="normal" in2="BackgroundImageFix" result="effect1_dropShadow_4296_4383"/>
<feBlend mode="normal" in="SourceGraphic" in2="effect1_dropShadow_4296_4383" result="shape"/>
</filter>
</defs>
</svg>
